HIERARCHY
ROOT hip
{
  OFFSET 0 0 0
  CHANNELS 6 Xposition Yposition Zposition Zrotation Yrotation Xrotation
  JOINT abdomen
  {
    OFFSET 0 20.6881 -0.73152
    CHANNELS 3 Zrotation Xrotation Yrotation
    JOINT chest
    {
      OFFSET 0 11.7043 -0.48768
      CHANNELS 3 Zrotation Xrotation Yrotation
      JOINT neck
      {
        OFFSET 0 22.1894 -2.19456
        CHANNELS 3 Zrotation Xrotation Yrotation
        JOINT head
        {
          OFFSET -0.24384 7.07133 1.2192
          CHANNELS 3 Zrotation Xrotation Yrotation
          JOINT leftEye
          {
            OFFSET 4.14528 8.04674 8.04672
            CHANNELS 3 Zrotation Xrotation Yrotation
            End Site
            {
              OFFSET 1 0 0
            }
          }
          JOINT rightEye
          {
            OFFSET -3.6576 8.04674 8.04672
            CHANNELS 3 Zrotation Xrotation Yrotation
            End Site
            {
              OFFSET 1 0 0
            }
          }
        }
      }
      JOINT rCollar
      {
        OFFSET -2.68224 19.2634 -4.8768
        CHANNELS 3 Zrotation Xrotation Yrotation
        JOINT rShldr
        {
          OFFSET -8.77824 -1.95073 1.46304
          CHANNELS 3 Zrotation Xrotation Yrotation
          JOINT rForeArm
          {
            OFFSET -28.1742 -1.7115 0.48768
            CHANNELS 3 Zrotation Xrotation Yrotation
            JOINT rHand
            {
              OFFSET -22.5879 0.773209 7.07136
              CHANNELS 3 Zrotation Xrotation Yrotation
              JOINT rThumb1
              {
                OFFSET -1.2192 -0.487915 3.41376
                CHANNELS 3 Zrotation Xrotation Yrotation
                JOINT rThumb2
                {
                  OFFSET -3.37035 -0.52449 3.41376
                  CHANNELS 3 Zrotation Xrotation Yrotation
                  End Site
                  {
                    OFFSET -1.78271 -1.18214 1.43049
                  }
                }
              }
              JOINT rIndex1
              {
                OFFSET -7.75947 0.938293 5.60832
                CHANNELS 3 Zrotation Xrotation Yrotation
                JOINT rIndex2
                {
                  OFFSET -2.54057 -0.884171 1.56538
                  CHANNELS 3 Zrotation Xrotation Yrotation
                  End Site
                  {
                    OFFSET -1.62519 -0.234802 1.16502
                  }
                }
              }
              JOINT rMid1
              {
                OFFSET -8.24714 1.18213 3.41376
                CHANNELS 3 Zrotation Xrotation Yrotation
                JOINT rMid2
                {
                  OFFSET -3.10165 -0.590103 1.0647
                  CHANNELS 3 Zrotation Xrotation Yrotation
                  End Site
                  {
                    OFFSET -2.48547 -0.328903 0.83742
                  }
                }
              }
              JOINT rRing1
              {
                OFFSET -8.82822 0.546677 1.51678
                CHANNELS 3 Zrotation Xrotation Yrotation
                JOINT rRing2
                {
                  OFFSET -2.60934 -0.819778 -0.0198488
                  CHANNELS 3 Zrotation Xrotation Yrotation
                  End Site
                  {
                    OFFSET -2.33842 -0.294052 0.168128
                  }
                }
              }
              JOINT rPinky1
              {
                OFFSET -8.27202 -0.0477905 -0.4584
                CHANNELS 3 Zrotation Xrotation Yrotation
                JOINT rPinky2
                {
                  OFFSET -1.82734 -0.647385 -0.700984
                  CHANNELS 3 Zrotation Xrotation Yrotation
                  End Site
                  {
                    OFFSET -1.69225 -0.51767 -0.607171
                  }
                }
              }
            }
          }
        }
      }
      JOINT lCollar
      {
        OFFSET 2.68224 19.2634 -4.8768
        CHANNELS 3 Zrotation Xrotation Yrotation
        JOINT lShldr
        {
          OFFSET 8.77824 -1.95073 1.46304
          CHANNELS 3 Zrotation Xrotation Yrotation
          JOINT lForeArm
          {
            OFFSET 28.1742 -1.7115 0.48768
            CHANNELS 3 Zrotation Xrotation Yrotation
            JOINT lHand
            {
              OFFSET 22.5879 0.773209 7.07136
              CHANNELS 3 Zrotation Xrotation Yrotation
              JOINT lThumb1
              {
                OFFSET 1.2192 -0.487915 3.41376
                CHANNELS 3 Zrotation Xrotation Yrotation
                JOINT lThumb2
                {
                  OFFSET 3.37035 -0.52449 3.41376
                  CHANNELS 3 Zrotation Xrotation Yrotation
                  End Site
                  {
                    OFFSET 1.78271 -1.18214 1.43049
                  }
                }
              }
              JOINT lIndex1
              {
                OFFSET 7.75947 0.938293 5.60832
                CHANNELS 3 Zrotation Xrotation Yrotation
                JOINT lIndex2
                {
                  OFFSET 2.54057 -0.884171 1.56538
                  CHANNELS 3 Zrotation Xrotation Yrotation
                  End Site
                  {
                    OFFSET 1.62519 -0.234802 1.16502
                  }
                }
              }
              JOINT lMid1
              {
                OFFSET 8.24714 1.18213 3.41376
                CHANNELS 3 Zrotation Xrotation Yrotation
                JOINT lMid2
                {
                  OFFSET 3.10165 -0.590103 1.0647
                  CHANNELS 3 Zrotation Xrotation Yrotation
                  End Site
                  {
                    OFFSET 2.48547 -0.328903 0.83742
                  }
                }
              }
              JOINT lRing1
              {
                OFFSET 8.82822 0.546677 1.51678
                CHANNELS 3 Zrotation Xrotation Yrotation
                JOINT lRing2
                {
                  OFFSET 2.60934 -0.819778 -0.0198488
                  CHANNELS 3 Zrotation Xrotation Yrotation
                  End Site
                  {
                    OFFSET 2.33842 -0.294052 0.168128
                  }
                }
              }
              JOINT lPinky1
              {
                OFFSET 8.27202 -0.0477905 -0.4584
                CHANNELS 3 Zrotation Xrotation Yrotation
                JOINT lPinky2
                {
                  OFFSET 1.82734 -0.647385 -0.700984
                  CHANNELS 3 Zrotation Xrotation Yrotation
                  End Site
                  {
                    OFFSET 1.69225 -0.51767 -0.607171
                  }
                }
              }
            }
          }
        }
      }
    }
  }
  JOINT rButtock
  {
    OFFSET -8.77824 4.35084 1.2192
    CHANNELS 3 Zrotation Xrotation Yrotation
    JOINT rThigh
    {
      OFFSET 0 -1.70687 -2.19456
      CHANNELS 3 Zrotation Xrotation Yrotation
      JOINT rShin
      {
        OFFSET 0 -36.8199 0.73152
        CHANNELS 3 Zrotation Xrotation Yrotation
        JOINT rFoot
        {
          OFFSET 0.73152 -45.1104 -5.12064
          CHANNELS 3 Zrotation Xrotation Yrotation
          End Site
          {
            OFFSET -1.1221 -3.69964 12.103
          }
        }
      }
    }
  }
  JOINT lButtock
  {
    OFFSET 8.77824 4.35084 1.2192
    CHANNELS 3 Zrotation Xrotation Yrotation
    JOINT lThigh
    {
      OFFSET 0 -1.70687 -2.19456
      CHANNELS 3 Zrotation Xrotation Yrotation
      JOINT lShin
      {
        OFFSET 0 -36.8199 0.73152
        CHANNELS 3 Zrotation Xrotation Yrotation
        JOINT lFoot
        {
          OFFSET -0.73152 -45.1104 -5.12064
          CHANNELS 3 Zrotation Xrotation Yrotation
          End Site
          {
            OFFSET 1.1221 -3.69964 12.103
          }
        }
      }
    }
  }
}
MOTION
Frames:	8
Frame Time:	0.03333
54.4431 61.921400000000006 9.498199999999999 -11.570186 41.894515 -5.815145 0.047247 7.444506 179.301044 -2.650409 7.78355 -161.700851 10.743253 27.56091 124.472281 -27.719998 20.820979 -87.602637 -0.003579 -0.0 0.000768 0.002135 0.0 0.00035 -44.92949 -86.287092 -66.537086 -74.546349 -40.920095 -89.670567 -58.071697 51.207899 -98.677684 -150.411401 11.162087 144.544257 -173.770827 -11.439862 89.891539 -165.126382 -3.600091 87.944302 -46.207404 39.65428 36.317219 -10.99399 23.630078 4.697241 173.121468 -66.297476 137.613804 -4.996779 20.723608 4.541428 -0.023373 -1.726048 -0.542419 11.638526 -26.213034 -3.149392 -149.12093 25.572813 -145.198422 16.664954 43.843119 6.080871 157.848557 -22.658499 -165.565911 -144.087247 25.140153 138.343705 10.501906 -37.012716 -88.660822 4.731088 23.577371 -1.390783 164.69823 -2.371889 -89.585914 43.703198 -18.743242 -11.42038 -159.643375 -69.973814 -102.397298 164.848853 -29.691823 -116.270094 8.418092 20.880085 -5.645802 163.654534 -6.189144 -143.481296 0.001117 -0.060721 0.019908 156.381743 -21.323865 -174.352853 45.218201 -48.150831 43.993781 11.934838 -29.33481 14.295604 -0.000636 -0.001075 -0.000318 -16.30334 -41.80114 -11.275294 111.477937 64.055093 23.071664 -149.981246 -17.703728 -176.276229 -179.832234 75.74796 -0.129302 -136.023559 -3.288914 4.263423 65.332881 75.560584 19.725554 -152.376196 -2.497796 78.610462
54.6405 61.6815 9.7087 -11.131151 41.991321 -5.065826 -0.657818 11.890932 3.189368 2.26456 -12.640568 14.692793 8.725928 16.785931 59.316017 -20.708627 -11.144871 -29.081765 -0.001449 0.0 -0.000831 -0.001449 0.0 -0.000831 -85.537595 68.182371 88.688862 -106.000451 20.406277 99.760249 5.275208 12.266726 -146.304889 -119.104088 41.959742 108.977545 83.253445 -50.258069 33.616706 -32.880642 7.304789 -7.06384 11.979335 -21.347398 -5.061742 -35.5683 43.831238 27.912364 -22.287421 41.333691 17.257842 86.313717 -78.28865 57.436348 -0.021948 -1.725419 -0.540744 7.591306 26.549716 4.01781 -145.172713 12.068084 -141.822277 16.211668 41.614387 5.889267 155.46008 -3.227791 -161.777548 -160.803872 -15.33268 150.939224 -51.708978 -30.068463 -135.806563 53.818571 73.604273 -38.003616 177.747811 -15.324187 -89.568763 -28.548948 -68.032212 -21.736097 153.45353 -21.067648 -121.744529 171.730346 -35.996554 -117.513356 0.570488 1.648513 -0.32148 -177.721372 -53.109608 -140.027395 75.673219 -72.115938 92.828998 -13.672241 -25.67647 8.172471 1.202755 -3.047987 1.114333 -28.354473 75.228224 -6.342209 179.991491 75.749768 0.005822 165.464879 31.501099 -0.0 145.584932 81.382978 122.296762 44.051657 3.487167 67.603258 -179.895553 75.748719 -0.080501 -136.861494 -4.811766 84.884625 86.245103 -3.348039 0.077592 -6.830901 -1.237397 -92.833702
54.8166 61.453199999999995 9.879 -11.37863 41.785112 -4.907369 -0.652214 11.633667 1.460362 2.738188 -12.596655 16.560595 7.298104 31.654349 154.226598 -19.652444 33.261493 -115.870986 -0.000247 -0.0 0.00408 -0.000537 0.0 -0.001497 -2.135192 11.142974 2.703555 -114.644115 -23.17936 163.648764 7.608847 15.727807 -147.283257 -115.592121 43.235346 105.288798 -5.175302 5.020105 1.01603 -129.656826 -27.997923 112.937697 -90.224959 41.073186 75.7972 94.554803 -66.259697 46.305302 -167.376895 -28.008402 145.268148 -154.033868 19.935281 138.348549 -145.119009 0.268456 -179.211078 -150.351874 -35.132063 -173.019038 -118.628697 -35.451317 -116.546518 -10.536148 -26.366805 -13.447113 153.589728 -75.693312 178.259568 70.264491 -44.234309 108.096534 -79.695994 -33.513036 85.285585 177.984148 27.04984 -147.067306 95.361685 37.751759 -54.682387 -25.642912 -30.996135 -23.289933 -25.696174 -44.692445 5.229719 -56.073902 -49.472003 -8.42514 167.374765 -28.008378 -145.270113 172.375934 -31.348475 -143.671919 75.943712 -72.11105 93.113387 -14.136102 26.71262 1.10656 146.225974 15.47091 142.746632 85.11746 -51.99107 84.431334 0.001601 0.00139 0.001601 -18.281318 -44.392352 154.721932 -109.593182 -77.939184 126.123288 175.485826 2.298049 85.901194 -179.999698 75.749919 -0.000207 -135.238441 -4.428416 5.5011 98.46553 81.38241 59.484051 -62.376455 -6.59506 -177.535896
54.942800000000005 61.223000000000006 10.0216 -11.750276 41.949174 -5.027341 -0.117097 11.618655 -2.691086 3.473832 -12.410399 20.547701 8.299532 31.082966 147.974299 -21.907564 30.993145 -109.815578 -0.002024 -0.0 0.002113 -0.002024 -0.0 0.002113 -33.83063 -85.666224 -55.247636 19.226014 9.335281 -46.371031 177.491159 51.713433 -63.560892 -22.839986 -58.219355 -18.165123 -0.440791 0.435598 0.069678 0.252905 -0.201755 0.08698 -13.870613 18.815235 9.290631 8.844423 0.676416 -0.668108 -160.097124 -4.901127 142.969672 3.168133 0.180582 0.384056 -0.008083 3.557475 1.117104 -154.52252 12.777354 170.105576 -112.783293 -40.026226 -110.812817 13.413256 30.990555 5.387386 85.537573 68.182671 -88.6889 -122.613906 -23.807462 -134.053664 178.37008 23.151458 -49.260361 -162.978668 -28.608169 -141.788608 169.985432 -7.667007 -89.938771 77.695079 4.898724 -26.239229 -12.215593 -21.784989 5.119874 64.230574 49.16059 -51.368412 167.300161 -27.767498 -145.25868 154.033601 19.93535 -138.348943 72.756338 -72.143213 89.772254 -13.899985 29.736002 0.543399 -1.134498 3.040681 -1.043249 152.302899 29.146044 147.210022 -179.965344 75.750336 -0.026711 166.475821 30.04145 -102.982115 -92.200837 3.430646 132.665743 -169.963497 27.708883 61.913929 -179.999061 75.748684 -0.000642 -134.749662 -7.457678 180.0 13.259233 -81.916115 155.837335 9.250539 5.601183 31.178249
55.0824 60.979099999999995 10.1134 -12.087613 42.142831 -5.096707 0.020381 6.803133 -176.40492 -2.378192 7.837986 -166.271696 -10.076647 23.139181 -75.038558 33.063061 10.389701 106.736625 -0.001574 0.0 -5.5e-05 0.004141 -0.0 -0.000426 0.023469 -0.138678 -0.030265 74.337069 -71.882946 7.451271 -171.035143 55.699857 -73.100282 -26.309587 -65.957555 -25.037212 -93.74377 37.963746 53.548456 37.325438 -35.809027 23.667316 -77.667583 43.027878 64.538637 -82.37714 52.14445 59.769777 -151.477008 17.84149 137.537957 -11.544398 33.32653 9.498614 -0.023191 -1.726013 -0.542657 -154.025385 -65.024259 -178.239701 12.255208 41.424715 10.27694 14.736673 44.093342 8.330117 48.787795 -86.434912 70.450559 -51.300252 2.201378 30.6526 -158.599759 -11.368244 -40.07969 -171.827663 -5.664066 -146.230284 176.296403 -13.919443 -89.718227 77.903879 7.971977 -24.848894 129.57588 16.760255 -108.784958 64.82806 55.861455 -45.563026 160.673885 -6.667771 -143.245008 42.497042 58.273479 -36.597983 77.74292 72.903303 -95.870053 159.79841 -3.431564 -176.814474 -8.3663 26.426954 -7.363521 -28.334697 75.276619 -5.820179 0.0 0.001006 -0.001285 -17.321315 -42.227492 -12.095264 101.286944 63.64981 -18.705211 -36.201159 76.262838 -78.626136 -179.947581 75.749067 -0.04313 -134.581176 -8.070796 -180.0 -169.469205 -84.978825 -174.846038 -118.299105 12.211989 168.188133
55.2256 60.7513 10.1859 -12.041859 42.23779 -4.864894 -0.287141 11.457283 0.0 3.213948 -12.388757 17.573999 10.39732 19.183359 74.228904 -25.251195 -4.708708 -43.465398 0.002884 0.0 0.001041 -0.002684 -0.0 0.00152 -159.222102 -48.725208 170.566304 146.213985 18.479078 -151.170919 -39.065335 -13.484277 116.617597 -160.268901 -60.801791 -179.413545 -3.562304 3.477391 0.65247 -116.462873 -7.065582 105.007077 -19.169965 24.114755 13.380825 -169.219741 -20.476209 110.119978 14.565994 -44.053191 -2.826578 -166.657058 -14.776661 144.058156 -74.842066 72.959984 92.828376 -157.416486 44.130157 169.494089 5.975649 17.925628 5.357491 -127.601147 -31.016845 -125.642245 -0.162964 -0.990053 0.218578 109.786045 0.986898 -137.922238 -143.353361 2.548491 74.312309 56.087596 74.227462 -40.23385 78.030547 38.689092 -42.412799 -76.194579 -49.207383 -28.593873 166.030815 -42.807308 -122.21958 -10.961575 5.74037 8.595686 86.294912 60.96041 -77.857422 161.046897 1.266903 -142.425379 0.021218 -1.72602 0.542657 154.095402 12.762634 -170.109377 162.36714 72.064242 150.898086 23.500807 -38.43802 23.859873 179.994036 75.749277 0.004081 164.631791 30.941672 28.126907 102.562665 56.18946 -178.065603 76.66093 24.449164 37.426186 -0.002009 0.000365 -0.001005 86.119802 -45.935538 174.8541 88.71338 -15.249813 -1.219015 -7.767422 -15.361492 -97.14947
55.339400000000005 60.5527 10.2798 -11.957939 42.345778 -4.724829 -0.248547 6.732498 -177.88086 -2.857061 7.738892 -164.892968 6.739248 15.35369 44.954108 -14.671763 -16.210367 -14.755815 -0.003092 0.0 -0.002886 0.002466 -0.0 -0.003367 4.143606 -54.97249 -10.969539 63.852434 29.216323 -39.423721 164.039195 -43.112841 17.18977 -100.462024 46.46594 89.342421 -0.491244 0.484828 0.077354 17.084214 -26.110502 -12.17927 -14.056921 19.016859 9.431722 151.71612 -54.271983 89.729094 -125.64321 49.839422 115.273495 -5.813306 23.254747 5.322992 -73.62515 72.973843 91.55342 -159.829085 -1.663028 176.492312 -146.184125 15.331701 -142.712914 -163.603342 58.382466 -146.472679 157.35155 -17.747977 -164.656972 -117.147822 45.637481 126.378928 178.589398 5.145212 -49.204388 -162.751322 -28.852012 -141.728562 -4.530433 -4.514274 0.521567 -34.178789 -64.018107 21.391855 46.207984 39.652165 -36.31952 75.90917 50.472734 -54.895708 160.097232 -4.901326 -142.968881 -80.987777 -77.628187 -52.533431 145.117215 0.268168 179.211628 35.017309 -74.873078 56.329431 144.261542 9.237886 141.008807 -2.068649 -0.733573 2.215926 179.929017 75.75077 0.054711 164.08288 30.024808 80.014435 97.752417 5.264792 -164.081408 -102.286049 -60.074598 -25.266406 -179.997526 75.749143 -0.002552 -134.317866 -6.585846 0.0 -57.980352 83.334923 -34.686627 153.947792 18.770076 -94.958959
55.43860000000001 60.3757 10.3399 -12.122527 42.408866 -4.819664 -0.138103 6.797956 -177.54884 -2.787608 7.755397 -165.281401 -6.576482 16.291394 -31.069879 24.522911 -10.893768 67.037014 0.000237 0.0 0.000355 0.000237 0.0 0.000355 0.16291 -0.990014 -0.218987 62.330442 13.167583 4.813485 24.420119 51.30905 97.727576 -21.408727 -47.980202 -11.856373 88.928439 -50.831493 37.599543 -160.709418 -27.968061 126.880539 -108.428063 34.16205 91.743566 -168.547098 -18.704378 116.118458 0.540586 -1.590034 -0.294908 -4.958273 21.319809 4.410224 0.003747 0.917674 0.287339 -156.008204 -9.919784 173.038538 5.661094 16.872657 5.086696 -10.336893 -25.933687 -11.343854 -4.239847 -44.742747 8.647356 -61.334107 36.177763 -6.898 -69.118834 11.798189 -116.981445 154.695897 63.534982 -132.41751 -93.028063 -51.084165 -40.50141 16.706627 -41.869806 29.312995 16.403042 21.463829 -11.218695 171.294219 -23.650789 -109.549406 -149.542726 -77.524726 -117.448164 54.695871 61.793451 -47.838673 74.841265 72.960064 -92.828336 -5.862402 0.004767 4.53693 124.851609 -29.040218 122.623622 -16.999509 42.643195 -6.42414 0.000269 0.000461 -0.000346 -19.050903 -43.57325 77.3993 104.45242 -24.737919 49.651979 27.355519 52.669635 -173.543463 179.997322 75.750816 0.002763 -134.177298 -6.909779 -0.0 75.804636 82.461024 11.903281 -8.025953 -12.37191 -96.122359
